HIERARCHY
ROOT Hips
{
    OFFSET 0.0 0.0 0.0
    CHANNELS 6 Xposition Yposition Zposition Zrotation Xrotation Yrotation
    JOINT Spine
    {
        OFFSET 0.0 5.0 0.0
        CHANNELS 3 Zrotation Xrotation Yrotation
        JOINT Chest
        {
            OFFSET 0.0 5.0 0.0
            CHANNELS 3 Zrotation Xrotation Yrotation
            JOINT Neck
            {
                OFFSET 0.0 8.0 0.0
                CHANNELS 3 Zrotation Xrotation Yrotation
                JOINT Head
                {
                    OFFSET 0.0 5.0 0.0
                    CHANNELS 3 Zrotation Xrotation Yrotation
                    End Site
                    {
                        OFFSET 0.0 3.0 0.0
                    }
                }
            }
            JOINT LeftShoulder
            {
                OFFSET -5.0 0.0 0.0
                CHANNELS 3 Zrotation Xrotation Yrotation
                JOINT LeftArm
                {
                    OFFSET 0.0 -10.0 0.0
                    CHANNELS 3 Zrotation Xrotation Yrotation
                    JOINT LeftForeArm
                    {
                        OFFSET 0.0 -10.0 0.0
                        CHANNELS 3 Zrotation Xrotation Yrotation
                        End Site
                        {
                            OFFSET 0.0 -3.0 0.0
                        }
                    }
                }
            }
        }
    }
}

MOTION
Frames: 37
Frame Time: 0.033333
960.000000 445.000000 113.211142 0.000000 0.000000 0.000000 0.000000 0.000000 0.000000 23.025492 -13.143767 0.000000 180.000000 9.854154 0.000000 21.801409 -4.091134 -0.000000 158.198591 8.749128 30.000000 15.945396 -5.275472 0.000000 18.000000 0.724089 0.000000
1691.525230 140.756605 115.119092 0.000000 0.000000 0.000000 0.000000 0.000000 0.000000 -163.376529 3.474993 4.973798 16.623471 -0.208892 4.973798 -171.853121 -3.488556 3.759997 99.744051 3.291280 29.763441 -171.126653 -3.812971 -3.759997 0.673538 0.378459 0.313953
1636.048050 128.802021 109.822780 0.000000 0.000000 0.000000 0.000000 0.000000 0.000000 157.904128 13.203577 9.635073 -22.095872 7.496299 9.635073 -171.936471 -4.169182 7.460697 -143.675701 -1.997853 29.057495 -173.500805 -4.219605 -7.460697 0.570999 0.470803 0.626666
1578.156967 80.474526 108.576181 0.000000 0.000000 0.000000 0.000000 0.000000 0.000000 -139.519796 -4.197818 13.690942 40.480204 1.734813 13.690942 -174.507724 -3.674568 11.043737 119.111399 13.777607 27.893295 -173.607258 -4.565695 -11.043737 0.461920 0.451817 0.936907
960.418757 444.998421 103.079726 0.000000 0.000000 0.000000 0.000000 0.000000 0.000000 25.077893 23.041025 16.886559 180.000000 -6.132666 16.886559 23.861935 11.865993 14.452610 156.138065 4.768537 26.289200 17.903699 4.414899 -14.452610 18.000000 -0.455809 1.243449
960.523360 444.997533 121.065745 0.000000 0.000000 0.000000 0.000000 0.000000 0.000000 25.638906 -26.835949 19.021130 180.000000 12.681726 19.021130 24.425035 5.733404 17.633558 155.574965 4.956322 24.270510 18.452907 -0.049173 -17.633558 18.000000 -0.227789 1.545085
960.627905 444.996447 138.349060 0.000000 0.000000 0.000000 0.000000 0.000000 0.000000 26.219073 -21.192676 19.960535 180.000000 4.859822 19.960535 25.006291 -9.074237 20.536413 154.993709 -6.518253 21.869059 19.024920 0.620473 -20.536413 18.000000 0.244918 1.840623
1126.242828 420.359820 147.315202 0.000000 0.000000 0.000000 0.000000 0.000000 0.000000 31.410514 2.189987 19.645745 -148.589486 2.460881 19.645745 32.280463 -4.253661 23.115397 -131.603972 3.761920 19.122720 45.585331 0.394853 -23.115397 -13.449727 -0.255444 2.128896
1257.895088 650.549197 135.161236 0.000000 0.000000 0.000000 0.000000 0.000000 0.000000 25.073180 6.436399 18.096541 -154.926820 -3.822281 18.096541 46.260945 5.222553 25.329838 -154.651428 -5.347247 16.074804 27.339487 5.293179 -25.329838 -13.619892 -0.265911 2.408768
960.941083 444.992008 132.629297 0.000000 0.000000 0.000000 0.000000 0.000000 0.000000 28.072001 -6.573170 15.410265 180.000000 -4.821509 15.410265 26.849221 8.526257 27.144812 153.150779 -9.458118 12.773379 20.864045 0.308503 -27.144812 18.000000 0.135421 2.679134
1163.815842 547.748709 133.159155 0.000000 0.000000 0.000000 0.000000 0.000000 0.000000 117.162728 -9.190860 11.755705 -62.837272 -12.536050 11.755705 102.363764 3.984687 28.531695 -47.376450 -7.841137 9.270510 104.768601 1.623993 -28.531695 -6.003489 0.139194 2.938926
961.149372 444.988063 146.985064 0.000000 0.000000 0.000000 0.000000 0.000000 0.000000 29.395983 1.295229 7.362491 180.000000 7.771807 7.362491 28.146217 -5.358617 29.468618 151.853783 2.938778 5.621439 22.170006 -11.329174 -29.468618 18.000000 1.370750 3.187120
1136.717377 590.104480 126.993302 0.000000 0.000000 0.000000 0.000000 0.000000 0.000000 115.752126 13.405018 2.506665 -64.247874 -9.728382 2.506665 73.638146 5.443755 29.940802 -21.842452 -4.223036 1.883716 75.369282 3.045698 -29.940802 -6.767207 -0.958615 3.422736
1163.079758 634.077559 144.134261 0.000000 0.000000 0.000000 0.000000 0.000000 0.000000 132.174340 -0.247648 -2.506665 -47.825660 -4.717716 -2.506665 94.255711 2.811607 29.940802 -149.364979 -7.249079 -1.883716 30.021641 5.604255 -29.940802 -5.096180 0.427405 3.644843
961.460830 444.980668 143.768815 0.000000 0.000000 0.000000 0.000000 0.000000 0.000000 31.497152 11.274514 -7.362491 180.000000 -3.335794 -7.362491 30.152455 -12.589691 29.468618 149.847545 -10.082002 -5.621439 24.175589 9.824717 -29.468618 18.000000 -0.699634 3.852566
1097.449951 565.089898 152.418841 0.000000 0.000000 0.000000 0.000000 0.000000 0.000000 -119.219568 -8.147646 -11.755705 60.780432 -4.706872 -11.755705 -150.180642 -5.828070 28.531695 48.804955 1.738464 -9.270510 -149.874178 -6.182762 -28.531695 2.713854 0.587534 4.045085
1114.140244 528.302071 150.733959 0.000000 0.000000 0.000000 0.000000 0.000000 0.000000 -142.671523 4.232219 -15.410265 37.328477 -4.800120 -15.410265 -177.395681 -0.284155 27.144812 34.687329 -0.594738 -12.773379 161.894167 -0.719179 -27.144812 -0.910956 -0.165464 4.221640
1116.433640 479.728639 154.442130 0.000000 0.000000 0.000000 0.000000 0.000000 0.000000 -102.267481 4.225574 -18.096541 77.732519 2.559743 -18.096541 -163.695626 -6.985749 25.329838 38.575767 1.644589 -16.074804 -176.001122 -1.047701 -25.329838 0.706594 0.033943 4.381533
1135.931282 466.493965 155.320000 0.000000 0.000000 0.000000 0.000000 0.000000 0.000000 -112.868406 4.248478 -19.645745 67.131594 2.719417 -19.645745 -159.517862 1.533210 23.115397 36.204678 3.790559 -19.122720 -154.426613 -6.208573 -23.115397 2.428729 0.553271 4.524135
1141.618767 467.420679 158.099863 0.000000 0.000000 0.000000 0.000000 0.000000 0.000000 -123.086385 1.639025 -19.960535 56.913615 1.189580 -19.960535 -154.885724 1.068451 20.536413 36.481623 -1.195706 -21.869059 -153.965441 -5.929244 -20.536413 2.446728 0.516019 4.648882
1150.647926 469.370956 148.366704 0.000000 0.000000 0.000000 0.000000 0.000000 0.000000 -43.953779 31.481546 -19.021130 136.046221 -10.255772 -19.021130 -154.327268 -6.863348 17.633558 60.745168 14.697338 -24.270510 -153.350642 -7.647999 -17.633558 2.386216 0.567598 4.755283
1151.529922 496.420240 133.850490 0.000000 0.000000 0.000000 0.000000 0.000000 0.000000 -116.362129 0.646088 -16.886559 63.637871 -1.859085 -16.886559 -149.081043 1.033759 14.452610 35.941860 2.254695 -26.289200 -156.847177 -0.835338 -14.452610 2.056513 -0.028719 4.842916
1148.402367 515.713574 157.511619 0.000000 0.000000 0.000000 0.000000 0.000000 0.000000 -118.252650 5.699233 -13.690942 61.747350 10.485607 -13.690942 -138.082896 -8.142509 11.043737 -156.312677 -7.429064 -27.893295 21.649626 8.860228 -11.043737 2.962417 0.025273 4.911436
1175.363617 533.368646 151.562006 0.000000 0.000000 0.000000 0.000000 0.000000 0.000000 -95.476638 -15.577363 -9.635073 84.523362 0.214120 -9.635073 -113.907461 2.485404 7.460697 -155.995907 -7.054998 -29.057495 12.512064 9.911445 -7.460697 -16.748794 -0.991145 4.960574
1199.533310 485.991104 146.619315 0.000000 0.000000 0.000000 0.000000 0.000000 0.000000 -100.003195 -3.376376 -4.973798 79.996805 7.311180 -4.973798 -86.083188 -3.490043 3.759997 38.843754 1.959240 -29.763441 -106.539452 -1.240828 -3.759997 6.197806 0.133576 4.990134
962.588190 444.938442 122.947969 0.000000 0.000000 0.000000 0.000000 0.000000 0.000000 39.579754 -1.993786 -0.000000 180.000000 11.816917 -0.000000 36.680773 -16.403591 0.000000 143.319227 -9.177277 -30.000000 29.388385 7.301096 -0.000000 18.000000 1.139324 5.000000
1142.094727 445.716287 118.570739 0.000000 0.000000 0.000000 0.000000 0.000000 0.000000 -140.228454 25.462133 4.973798 39.771546 -27.613237 4.973798 -156.118008 -5.644084 -3.759997 3.479189 -0.727418 -29.763441 -158.005660 -5.897382 3.759997 2.150019 0.610388 4.990134
1164.005928 424.847746 122.762174 0.000000 0.000000 0.000000 0.000000 0.000000 0.000000 -84.241076 32.496712 9.635073 95.758924 31.810854 9.635073 -156.181584 -6.430252 -7.460697 166.928360 -1.559809 -29.057495 -154.947270 -5.990073 7.460697 2.644196 0.619250 4.960574
1124.208755 418.286655 98.854457 0.000000 0.000000 0.000000 0.000000 0.000000 0.000000 -117.427077 0.919961 13.690942 62.572923 -5.381777 13.690942 -155.943063 -5.784474 -11.043737 14.023837 -15.918408 -27.893295 -157.382674 -5.047810 11.043737 2.188130 0.523145 4.911436
962.990408 444.917226 113.966694 0.000000 0.000000 0.000000 0.000000 0.000000 0.000000 42.110883 -3.163929 16.886559 180.000000 -27.937679 16.886559 37.946959 11.300568 -14.452610 142.053041 -7.160248 -26.289200 29.293612 -14.493441 14.452610 18.000000 0.757410 4.842916
963.090170 444.911436 119.434583 0.000000 0.000000 0.000000 0.000000 0.000000 0.000000 42.659200 39.050737 19.021130 180.000000 -22.220878 19.021130 38.119107 -10.557953 -17.633558 141.880893 -27.116596 -24.270510 29.068887 7.221347 17.633558 18.000000 0.244840 4.755283
1186.646461 396.272757 116.203357 0.000000 0.000000 0.000000 0.000000 0.000000 0.000000 -72.847419 -20.219216 19.960535 107.152581 -9.393886 19.960535 -156.703603 -4.664883 -20.536413 178.447294 -12.773076 -21.869059 -157.212393 -4.429324 20.536413 1.964058 0.470383 4.648882
1313.051605 426.636125 103.179590 0.000000 0.000000 0.000000 0.000000 0.000000 0.000000 90.994869 -35.473343 19.645745 -89.005131 7.372877 19.645745 -160.515303 -4.239582 -23.115397 -153.248861 -2.247489 -19.122720 -159.640525 -4.205922 23.115397 0.000000 0.000000 0.000000
1347.999344 420.772226 103.104712 0.000000 0.000000 0.000000 0.000000 0.000000 0.000000 90.154351 -16.400498 18.096541 -89.845649 -2.860966 18.096541 -162.053401 -3.467361 -25.329838 -136.198880 -1.343597 -16.074804 -160.991694 -3.993062 25.329838 0.000000 0.000000 0.000000
1344.315948 421.031681 86.407852 0.000000 0.000000 0.000000 0.000000 0.000000 0.000000 69.757587 10.885566 15.410265 -110.242413 -9.608149 15.410265 25.616746 4.150651 -27.144812 -157.821005 -4.239642 -12.773379 17.214985 3.263763 27.144812 -16.704706 -0.013224 4.221640
1350.307617 440.309436 70.296400 0.000000 0.000000 0.000000 0.000000 0.000000 0.000000 71.124018 -8.930325 11.755705 -108.875982 0.235036 11.755705 42.739987 2.470270 -28.531695 -142.315466 3.543778 -9.270510 16.600926 -1.589657 28.531695 -16.660102 0.022740 4.045085
1357.685051 430.688889 76.429007 0.000000 0.000000 0.000000 0.000000 0.000000 0.000000 77.656077 2.798150 7.362491 -102.343923 -5.869948 7.362491 39.407151 5.889260 -29.468618 -136.343173 -4.612223 -5.621439 22.144452 2.039255 29.468618 -16.305135 0.014852 3.852566
